<svg xmlns="http://www.w3.org/2000/svg" xmlns:xlink="http://www.w3.org/1999/xlink" width="526" height="407" viewBox="0 0 526 407">
  <defs>
    <linearGradient id="linear-gradient" x1="-0.245" y1="-0.156" x2="1.187" y2="1.102" gradientUnits="objectBoundingBox">
      <stop offset="0" stop-color="#f3e4de"/>
      <stop offset="0.294" stop-color="#e45f83"/>
      <stop offset="0.628" stop-color="#9d5bff"/>
      <stop offset="1" stop-color="#6bcdf7"/>
    </linearGradient>
    <filter id="Rectangle_16772" x="174" y="0" width="352" height="407" filterUnits="userSpaceOnUse">
      <feOffset dy="3" input="SourceAlpha"/>
      <feGaussianBlur stdDeviation="28" result="blur"/>
      <feFlood flood-opacity="0.102"/>
      <feComposite operator="in" in2="blur"/>
      <feComposite in="SourceGraphic"/>
    </filter>
    <filter id="Rectangle_16792" x="0" y="88" width="348" height="246" filterUnits="userSpaceOnUse">
      <feOffset dx="-80" dy="3" input="SourceAlpha"/>
      <feGaussianBlur stdDeviation="33" result="blur-2"/>
      <feFlood flood-opacity="0.059"/>
      <feComposite operator="in" in2="blur-2"/>
      <feComposite in="SourceGraphic"/>
    </filter>
  </defs>
  <g id="Add_cards" data-name="Add cards" transform="translate(-1144 -1647)">
    <g id="Group_39334" data-name="Group 39334" transform="translate(158.97 1252)">
      <g transform="matrix(1, 0, 0, 1, 985.03, 395)" filter="url(#Rectangle_16772)">
        <g id="Rectangle_16772-2" data-name="Rectangle 16772" transform="translate(258 81)" stroke="#d1d1d1" stroke-width="1" fill="url(#linear-gradient)">
          <rect width="184" height="239" rx="17" stroke="none"/>
          <rect x="0.5" y="0.5" width="183" height="238" rx="16.5" fill="none"/>
        </g>
      </g>
      <g id="Group_39326" data-name="Group 39326" transform="translate(1321.272 505.875)">
        <path id="Path_95103" data-name="Path 95103" d="M1.1,0H2.453V-8.613H1.1ZM9.691,0V-3.619A2.113,2.113,0,0,0,7.491-6,2.129,2.129,0,0,0,5.7-5.082v-.792H4.422V0H5.731V-3.267A1.338,1.338,0,0,1,7.084-4.752c.869,0,1.3.583,1.3,1.463V0Zm4.356.1A2.76,2.76,0,0,0,15.8-.429a2.73,2.73,0,0,0,.935-1.243l-1.144-.506a1.515,1.515,0,0,1-1.518,1.089,1.638,1.638,0,0,1-1.243-.528,1.9,1.9,0,0,1-.495-1.353,1.819,1.819,0,0,1,.495-1.32,1.679,1.679,0,0,1,1.232-.517,1.479,1.479,0,0,1,1.507,1.078l1.122-.506A2.644,2.644,0,0,0,14.047-6a2.9,2.9,0,0,0-2.178.9,2.993,2.993,0,0,0-.88,2.145,2.961,2.961,0,0,0,.88,2.178A2.952,2.952,0,0,0,14.047.1ZM20.7-6a3.065,3.065,0,0,0-2.2.88,2.9,2.9,0,0,0-.913,2.167,2.889,2.889,0,0,0,.9,2.167,3.065,3.065,0,0,0,2.2.88,3,3,0,0,0,2.189-.88,2.938,2.938,0,0,0,.9-2.189,2.865,2.865,0,0,0-.9-2.156A3.022,3.022,0,0,0,20.7-6ZM19.415-4.268a1.647,1.647,0,0,1,1.276-.539,1.608,1.608,0,0,1,1.265.539,1.892,1.892,0,0,1,.5,1.32,1.935,1.935,0,0,1-.484,1.32,1.608,1.608,0,0,1-1.265.539,1.656,1.656,0,0,1-1.276-.55,1.939,1.939,0,0,1-.495-1.331A1.86,1.86,0,0,1,19.415-4.268ZM30.305,0V-3.278a1.31,1.31,0,0,1,1.3-1.485c.869,0,1.254.561,1.254,1.452V0h1.309V-3.63c0-1.408-.715-2.376-2.134-2.376a2.54,2.54,0,0,0-2.046.968,1.909,1.909,0,0,0-1.815-.968,2.1,2.1,0,0,0-1.749.924v-.792H25.146V0h1.309V-3.267a1.318,1.318,0,0,1,1.287-1.5c.869,0,1.265.583,1.265,1.463V0ZM41.261-2.552a3.588,3.588,0,0,0,.022-.407,3.147,3.147,0,0,0-.759-2.2A2.687,2.687,0,0,0,38.423-6a2.783,2.783,0,0,0-2.112.891,3.025,3.025,0,0,0-.847,2.156,2.986,2.986,0,0,0,.88,2.189,3.02,3.02,0,0,0,2.2.869,2.785,2.785,0,0,0,2.508-1.419l-.946-.627a1.657,1.657,0,0,1-1.584.913,1.793,1.793,0,0,1-1.188-.429,1.448,1.448,0,0,1-.528-1.1ZM38.423-4.873a1.413,1.413,0,0,1,1.529,1.331h-3.08A1.519,1.519,0,0,1,38.423-4.873Z" transform="translate(-0.242 9.125)" fill="#fff"/>
        <path id="Path_95102" data-name="Path 95102" d="M5.526.162A5.435,5.435,0,0,0,9.18-1.1a4.255,4.255,0,0,0,1.494-3.4A4.395,4.395,0,0,0,9.4-7.74,4.575,4.575,0,0,0,6.03-9.018a4.229,4.229,0,0,0-2.79.954L3.8-12.1H9.99v-2H2.124L1.062-6.66l1.89.774A3.408,3.408,0,0,1,5.616-7.092,2.561,2.561,0,0,1,8.388-4.464a2.332,2.332,0,0,1-.828,1.89,2.943,2.943,0,0,1-2,.7A3.016,3.016,0,0,1,2.646-3.924L.738-2.862A4.935,4.935,0,0,0,5.526.162Zm8.208,2.754A4.913,4.913,0,0,0,15.912-.918v-.09A1.84,1.84,0,0,0,14.238-3.06a1.547,1.547,0,0,0-1.62,1.566A1.431,1.431,0,0,0,14-.018a1.315,1.315,0,0,0,.54-.108,4.994,4.994,0,0,1-1.782,2.178ZM23.868-12.348a3.74,3.74,0,0,1,1.98.594,7.805,7.805,0,0,1,.828.594l1.116-1.62a5.975,5.975,0,0,0-3.924-1.512c-4.338,0-6.264,3.762-6.264,7.74,0,2.412.522,4.14,1.584,5.2A5.2,5.2,0,0,0,23.022.18,5.253,5.253,0,0,0,26.64-1.152a4.351,4.351,0,0,0,1.512-3.42A4.366,4.366,0,0,0,26.82-7.866a4.648,4.648,0,0,0-3.348-1.278,4.5,4.5,0,0,0-3.654,1.782H19.8a6.7,6.7,0,0,1,1.152-3.546A3.426,3.426,0,0,1,23.868-12.348Zm-.882,5.13a2.9,2.9,0,0,1,2.07.756,2.526,2.526,0,0,1,.81,1.962,2.671,2.671,0,0,1-2.88,2.664,3.1,3.1,0,0,1-2.106-.738,2.506,2.506,0,0,1-.846-1.98,2.38,2.38,0,0,1,.882-1.908A3.092,3.092,0,0,1,22.986-7.218Zm6.948.162A8.032,8.032,0,0,0,31.572-1.89,5.219,5.219,0,0,0,35.838.162a5.219,5.219,0,0,0,4.284-2.07,8.093,8.093,0,0,0,1.656-5.184,7.929,7.929,0,0,0-1.638-5.13,5.186,5.186,0,0,0-4.266-2.07A5.26,5.26,0,0,0,31.59-12.2,8.025,8.025,0,0,0,29.934-7.056Zm9.558,0a6.489,6.489,0,0,1-.99,3.69,3.035,3.035,0,0,1-2.628,1.494,3.043,3.043,0,0,1-2.646-1.512,6.59,6.59,0,0,1-.99-3.708,6.566,6.566,0,0,1,.972-3.672,3.035,3.035,0,0,1,2.628-1.494,3.043,3.043,0,0,1,2.646,1.512A6.536,6.536,0,0,1,39.492-7.056Zm4.194,0A8.032,8.032,0,0,0,45.324-1.89,5.219,5.219,0,0,0,49.59.162a5.219,5.219,0,0,0,4.284-2.07A8.093,8.093,0,0,0,55.53-7.092a7.929,7.929,0,0,0-1.638-5.13,5.186,5.186,0,0,0-4.266-2.07A5.26,5.26,0,0,0,45.342-12.2,8.025,8.025,0,0,0,43.686-7.056Zm9.558,0a6.489,6.489,0,0,1-.99,3.69,3.035,3.035,0,0,1-2.628,1.494A3.043,3.043,0,0,1,46.98-3.384a6.59,6.59,0,0,1-.99-3.708,6.566,6.566,0,0,1,.972-3.672,3.035,3.035,0,0,1,2.628-1.494,3.043,3.043,0,0,1,2.646,1.512A6.536,6.536,0,0,1,53.244-7.056Z" transform="translate(-0.242 37.125)" fill="#fff"/>
      </g>
      <g id="Group_39327" data-name="Group 39327" transform="translate(1260.925 599.682)">
        <path id="Path_95104" data-name="Path 95104" d="M1.782-4.257l.957-1.3.968,1.3L4.444-4.8l-.935-1.3L5.038-6.6l-.3-.869-1.529.5V-8.613H2.266v1.639l-1.529-.5L.451-6.6l1.529.506L1.045-4.8Zm12.463,0,.957-1.3.968,1.3.737-.539-.935-1.3L17.5-6.6l-.3-.869-1.529.5V-8.613h-.946v1.639l-1.529-.5-.286.869,1.529.506-.935,1.3Zm12.463,0,.957-1.3.968,1.3L29.37-4.8l-.935-1.3L29.964-6.6l-.3-.869-1.529.5V-8.613h-.946v1.639l-1.529-.5-.286.869,1.529.506-.935,1.3Zm12.463,0,.957-1.3.968,1.3.737-.539-.935-1.3L42.427-6.6l-.3-.869-1.529.5V-8.613h-.946v1.639l-1.529-.5L37.84-6.6l1.529.506-.935,1.3ZM54.1.1a3.321,3.321,0,0,0,2.233-.77,2.6,2.6,0,0,0,.913-2.079,2.686,2.686,0,0,0-.781-1.98,2.8,2.8,0,0,0-2.057-.781,2.585,2.585,0,0,0-1.705.583l.341-2.464h3.784V-8.613H52.019L51.37-4.07l1.155.473a2.082,2.082,0,0,1,1.628-.737,1.565,1.565,0,0,1,1.694,1.606,1.425,1.425,0,0,1-.506,1.155,1.8,1.8,0,0,1-1.221.429A1.843,1.843,0,0,1,52.338-2.4l-1.166.649A3.016,3.016,0,0,0,54.1.1Zm4.235-4.411a4.908,4.908,0,0,0,1,3.157A3.189,3.189,0,0,0,61.941.1a3.189,3.189,0,0,0,2.618-1.265,4.946,4.946,0,0,0,1.012-3.168,4.846,4.846,0,0,0-1-3.135,3.169,3.169,0,0,0-2.607-1.265,3.214,3.214,0,0,0-2.618,1.276A4.9,4.9,0,0,0,58.333-4.312Zm5.841,0a3.966,3.966,0,0,1-.6,2.255,1.855,1.855,0,0,1-1.606.913,1.86,1.86,0,0,1-1.617-.924,4.027,4.027,0,0,1-.6-2.266,4.012,4.012,0,0,1,.594-2.244,1.855,1.855,0,0,1,1.606-.913,1.86,1.86,0,0,1,1.617.924A3.994,3.994,0,0,1,64.174-4.312Zm2.563,0a4.908,4.908,0,0,0,1,3.157A3.189,3.189,0,0,0,70.345.1a3.189,3.189,0,0,0,2.618-1.265,4.946,4.946,0,0,0,1.012-3.168,4.846,4.846,0,0,0-1-3.135,3.169,3.169,0,0,0-2.607-1.265,3.214,3.214,0,0,0-2.618,1.276A4.9,4.9,0,0,0,66.737-4.312Zm5.841,0a3.966,3.966,0,0,1-.605,2.255,1.855,1.855,0,0,1-1.606.913,1.86,1.86,0,0,1-1.617-.924,4.027,4.027,0,0,1-.605-2.266,4.012,4.012,0,0,1,.594-2.244,1.855,1.855,0,0,1,1.606-.913,1.86,1.86,0,0,1,1.617.924A3.994,3.994,0,0,1,72.578-4.312Zm2.563,0a4.908,4.908,0,0,0,1,3.157A3.189,3.189,0,0,0,78.749.1a3.189,3.189,0,0,0,2.618-1.265,4.946,4.946,0,0,0,1.012-3.168,4.846,4.846,0,0,0-1-3.135,3.169,3.169,0,0,0-2.607-1.265,3.214,3.214,0,0,0-2.618,1.276A4.9,4.9,0,0,0,75.141-4.312Zm5.841,0a3.966,3.966,0,0,1-.6,2.255,1.855,1.855,0,0,1-1.606.913,1.86,1.86,0,0,1-1.617-.924,4.027,4.027,0,0,1-.605-2.266,4.012,4.012,0,0,1,.594-2.244,1.855,1.855,0,0,1,1.606-.913,1.86,1.86,0,0,1,1.617.924A3.994,3.994,0,0,1,80.982-4.312Z" transform="translate(0.105 9.317)" fill="#fff"/>
        <path id="Path_95105" data-name="Path 95105" d="M8.475.225A8.325,8.325,0,0,0,13.6-1.325,4.959,4.959,0,0,0,15.675-5.45c0-2.25-1.25-3.825-3.725-4.725V-10.2a4.413,4.413,0,0,0,3.225-4.35,4.5,4.5,0,0,0-2-3.85,7.67,7.67,0,0,0-4.7-1.45A7.7,7.7,0,0,0,3.8-18.4a4.56,4.56,0,0,0-2,3.85A4.379,4.379,0,0,0,5.05-10.2v.025C2.55-9.25,1.3-7.65,1.3-5.325a4.777,4.777,0,0,0,2.05,4A8.376,8.376,0,0,0,8.475.225ZM4.85-14.25c0-1.725,1.5-2.95,3.625-2.95,2.1,0,3.65,1.25,3.65,2.95s-1.55,2.95-3.65,2.95A4.122,4.122,0,0,1,5.9-12.125,2.639,2.639,0,0,1,4.85-14.25ZM4.375-5.575A2.621,2.621,0,0,1,5.525-7.8a4.858,4.858,0,0,1,2.95-.875,4.736,4.736,0,0,1,2.925.9,2.6,2.6,0,0,1,1.225,2.2A2.68,2.68,0,0,1,11.4-3.325a4.886,4.886,0,0,1-2.925.875,4.736,4.736,0,0,1-2.925-.9A2.743,2.743,0,0,1,4.375-5.575Zm15.7,9.625A6.824,6.824,0,0,0,23.1-1.275V-1.4c0-1.675-1.025-2.85-2.325-2.85a2.149,2.149,0,0,0-2.25,2.175A1.988,1.988,0,0,0,20.45-.025a1.827,1.827,0,0,0,.75-.15A6.936,6.936,0,0,1,18.725,2.85ZM25.325-9.8A11.155,11.155,0,0,0,27.6-2.625,7.248,7.248,0,0,0,33.525.225a7.249,7.249,0,0,0,5.95-2.875,11.24,11.24,0,0,0,2.3-7.2A11.013,11.013,0,0,0,39.5-16.975a7.2,7.2,0,0,0-5.925-2.875,7.305,7.305,0,0,0-5.95,2.9A11.146,11.146,0,0,0,25.325-9.8ZM38.6-9.8a9.012,9.012,0,0,1-1.375,5.125A4.216,4.216,0,0,1,33.575-2.6,4.227,4.227,0,0,1,29.9-4.7a9.153,9.153,0,0,1-1.375-5.15,9.119,9.119,0,0,1,1.35-5.1,4.216,4.216,0,0,1,3.65-2.075,4.227,4.227,0,0,1,3.675,2.1A9.077,9.077,0,0,1,38.6-9.8Zm5.825,0A11.155,11.155,0,0,0,46.7-2.625,7.248,7.248,0,0,0,52.625.225a7.249,7.249,0,0,0,5.95-2.875,11.24,11.24,0,0,0,2.3-7.2A11.013,11.013,0,0,0,58.6-16.975a7.2,7.2,0,0,0-5.925-2.875,7.305,7.305,0,0,0-5.95,2.9A11.146,11.146,0,0,0,44.425-9.8ZM57.7-9.8a9.012,9.012,0,0,1-1.375,5.125A4.216,4.216,0,0,1,52.675-2.6,4.227,4.227,0,0,1,49-4.7a9.153,9.153,0,0,1-1.375-5.15,9.119,9.119,0,0,1,1.35-5.1,4.216,4.216,0,0,1,3.65-2.075,4.227,4.227,0,0,1,3.675,2.1A9.077,9.077,0,0,1,57.7-9.8Zm5.825,0A11.155,11.155,0,0,0,65.8-2.625,7.248,7.248,0,0,0,71.725.225a7.249,7.249,0,0,0,5.95-2.875,11.24,11.24,0,0,0,2.3-7.2A11.013,11.013,0,0,0,77.7-16.975a7.2,7.2,0,0,0-5.925-2.875,7.305,7.305,0,0,0-5.95,2.9A11.146,11.146,0,0,0,63.525-9.8ZM76.8-9.8a9.013,9.013,0,0,1-1.375,5.125A4.216,4.216,0,0,1,71.775-2.6,4.227,4.227,0,0,1,68.1-4.7a9.153,9.153,0,0,1-1.375-5.15,9.119,9.119,0,0,1,1.35-5.1,4.216,4.216,0,0,1,3.65-2.075,4.227,4.227,0,0,1,3.675,2.1A9.077,9.077,0,0,1,76.8-9.8Z" transform="translate(2.105 49.317)" fill="#fff"/>
      </g>
      <g id="Group_39325" data-name="Group 39325" transform="translate(1258.535 500.497)">
        <circle id="Ellipse_4638" data-name="Ellipse 4638" cx="24.5" cy="24.5" r="24.5" transform="translate(0.495 -0.497)" fill="#fff" opacity="0.529"/>
        <g id="Group_39324" data-name="Group 39324" transform="translate(17.558 16.441)">
          <path id="Path_95095" data-name="Path 95095" d="M-11891-13736v15.857" transform="translate(11897.939 13736.001)" fill="none" stroke="#fff" stroke-linecap="round" stroke-width="3"/>
          <path id="Path_95096" data-name="Path 95096" d="M-11902.615-13720.886l7.082,7.083,7.082-7.083" transform="translate(11902.615 13729.917)" fill="none" stroke="#fff" stroke-linecap="round" stroke-linejoin="round" stroke-width="3"/>
        </g>
      </g>
    </g>
    <g transform="matrix(1, 0, 0, 1, 1144, 1647)" filter="url(#Rectangle_16792)">
      <rect id="Rectangle_16792-2" data-name="Rectangle 16792" width="150" height="48" rx="12" transform="translate(179 184)" fill="#fff"/>
    </g>
  </g>
</svg>
