<svg xmlns="http://www.w3.org/2000/svg" xmlns:xlink="http://www.w3.org/1999/xlink" width="82.624" height="82.649" viewBox="0 0 82.624 82.649">
  <defs>
    <linearGradient id="linear-gradient" x1="0.5" x2="0.5" y2="1" gradientUnits="objectBoundingBox">
      <stop offset="0" stop-color="#f66884"/>
      <stop offset="0.496" stop-color="#f67f70"/>
      <stop offset="1" stop-color="#c76fc1"/>
    </linearGradient>
  </defs>
  <g id="App_Store" data-name="App Store" transform="translate(2499.271 3307.631)">
    <path id="Path_95099" data-name="Path 95099" d="M-2416.653-3291.361a12.423,12.423,0,0,0-.242-2.96,17.035,17.035,0,0,0-11.142-12.584,16.636,16.636,0,0,0-4.007-.725h-52.073a25.583,25.583,0,0,0-2.991.482,17.189,17.189,0,0,0-8.412,5.539,16.022,16.022,0,0,0-3.751,8.973v52.561a13.867,13.867,0,0,0,1.447,5.392c3.1,6.038,7.937,9.6,14.824,9.646,16.65.1,33.3.026,49.954.042a15.068,15.068,0,0,0,8.383-2.437c5.21-3.385,8.023-8.133,8.016-14.453Q-2416.669-3266.622-2416.653-3291.361Zm-57.73,47.994a3.963,3.963,0,0,1-5.05.761,4.013,4.013,0,0,1-1.673-4.833c.739-1.928.826-1.989,2.855-1.989h7.527C-2472.012-3247.353-2472.958-3245.212-2474.383-3243.366Zm22.9-9.285h-29.567a4.1,4.1,0,0,1-4.182-2.65,4.015,4.015,0,0,1,3.78-5.4c2.388-.047,4.78-.026,7.17,0a1.1,1.1,0,0,0,1.131-.627q5.049-8.823,10.161-17.613a1.029,1.029,0,0,0,0-1.219c-.926-1.538-1.871-3.07-2.675-4.672a3.99,3.99,0,0,1,3.61-5.854,3.835,3.835,0,0,1,3.117,1.574c.321.425.586.892.936,1.432.336-.517.6-.979.915-1.4a3.987,3.987,0,0,1,5.25-1.045,3.936,3.936,0,0,1,1.609,5.035c-.658,1.374-1.469,2.674-2.23,4q-5.618,9.748-11.246,19.492l-.433.753c.181.243.412.131.6.133,2.471.01,4.941,0,7.412.011.268,0,.563-.118.771.244,1.469,2.576,2.96,5.139,4.5,7.813Zm16.6,0c-.936,0-1.87,0-2.933,0,.923,1.6,1.8,3.042,2.6,4.524a3.986,3.986,0,0,1-2.976,6.06,3.649,3.649,0,0,1-3.7-1.637c-.774-1.156-1.442-2.383-2.138-3.589q-5.872-10.158-11.748-20.318a1.1,1.1,0,0,1-.007-1.3c1.435-2.416,2.823-4.862,4.278-7.386.188.3.338.535.476.772q4.1,7.1,8.189,14.205a1.031,1.031,0,0,0,1.053.621c2.309-.037,4.62-.022,6.928-.013a4.056,4.056,0,0,1,4.328,4A4.061,4.061,0,0,1-2434.882-3252.653Z" transform="translate(0 0)" fill="url(#linear-gradient)"/>
  </g>
</svg>
