<svg xmlns="http://www.w3.org/2000/svg" xmlns:xlink="http://www.w3.org/1999/xlink" width="195.975" height="58" viewBox="0 0 195.975 58">
  <defs>
    <linearGradient id="linear-gradient" x1="0.5" x2="0.5" y2="1" gradientUnits="objectBoundingBox">
      <stop offset="0" stop-color="#f75595"/>
      <stop offset="0.487" stop-color="#f67f70"/>
      <stop offset="1" stop-color="#b268e3"/>
    </linearGradient>
    <linearGradient id="linear-gradient-2" x1="-0.381" y1="-0.686" x2="1.151" y2="1.665" xlink:href="#linear-gradient"/>
  </defs>
  <g id="Group_35277" data-name="Group 35277" transform="translate(-48 -94)">
    <g id="Group_23421" data-name="Group 23421" transform="translate(-511 4)">
      <circle id="Ellipse_3946" data-name="Ellipse 3946" cx="27" cy="27" r="27" transform="translate(568 90)" fill="url(#linear-gradient)"/>
      <g id="Ellipse_3947" data-name="Ellipse 3947" transform="translate(559 110)" fill="#fab350" stroke="#fff" stroke-width="4">
        <circle cx="19" cy="19" r="19" stroke="none"/>
        <circle cx="19" cy="19" r="17" fill="none"/>
      </g>
    </g>
    <path id="Path_42738" data-name="Path 42738" d="M17.964-15.193v-3.429H7.433v-6.889H18.844v-3.46H3.7V-5.208H7.433v-9.985Zm13.475-1c0,.91-.516,1.366-1.517,1.366h-2c-2.853,0-6.737,1.184-6.737,4.947V-9.7A4.309,4.309,0,0,0,22.728-6.27a5.83,5.83,0,0,0,3.915,1.335,5.125,5.125,0,0,0,4.765-2.489v2.215h3.551V-15.527a7.131,7.131,0,0,0-.546-2.913c-1-2.215-3.035-3.308-6.07-3.308-3.308,0-5.614,1.366-6.889,4.127l2.762,1.578a4.176,4.176,0,0,1,4.036-2.58C30.285-18.622,31.438-17.53,31.438-16.194Zm-.03,4.431a3.722,3.722,0,0,1-4.036,3.945,2.28,2.28,0,0,1-2.58-2.215,1.852,1.852,0,0,1,.971-1.639,4.206,4.206,0,0,1,2.155-.607h3.49ZM44.883-4.935a6.682,6.682,0,0,0,4.431-1.4,4.546,4.546,0,0,0,1.7-3.642c0-2.519-1.942-4.279-5.614-5.1-2.094-.455-3-1-3-2.064,0-.88,1.153-1.578,2.276-1.578a3.574,3.574,0,0,1,3.4,2.185l2.792-1.578a6.12,6.12,0,0,0-6.07-3.642,6.408,6.408,0,0,0-4.127,1.4,4.356,4.356,0,0,0-1.76,3.581,4.178,4.178,0,0,0,1.153,2.944,7.422,7.422,0,0,0,4.036,1.942c2.215.455,3.338,1.184,3.338,2.124,0,1.093-1.184,1.791-2.549,1.791A4.175,4.175,0,0,1,41-10.58L38.176-9A6.775,6.775,0,0,0,44.883-4.935ZM63.456-18.167v-3.247H59.48v-5.007H55.869v5.007H52.895v3.247h2.974v7.739c0,3.52,2.064,5.4,5.614,5.4a5.668,5.668,0,0,0,1.942-.334V-8.425a5.143,5.143,0,0,1-1.153.121c-1.851,0-2.792-.759-2.792-2.7v-7.162ZM84.579-21.6a7.215,7.215,0,0,0-2.094-5.22c-1.366-1.426-3.46-2.155-6.221-2.155H67.857V-5.208h3.733v-8.8h4.218a9.106,9.106,0,0,0,6.434-2.155A7.185,7.185,0,0,0,84.579-21.6Zm-8.649-3.915a4.914,4.914,0,0,1,3.733,1.184,3.917,3.917,0,0,1,1.123,2.822c0,2.185-1.548,4.067-4.856,4.067h-4.34v-8.073Zm20.849,9.317c0,.91-.516,1.366-1.517,1.366h-2c-2.853,0-6.737,1.184-6.737,4.947V-9.7A4.309,4.309,0,0,0,88.069-6.27a5.83,5.83,0,0,0,3.915,1.335,5.125,5.125,0,0,0,4.765-2.489v2.215H100.3V-15.527a7.131,7.131,0,0,0-.546-2.913c-1-2.215-3.035-3.308-6.07-3.308-3.308,0-5.614,1.366-6.889,4.127l2.762,1.578a4.176,4.176,0,0,1,4.036-2.58C95.625-18.622,96.779-17.53,96.779-16.194Zm-.03,4.431a3.722,3.722,0,0,1-4.036,3.945,2.28,2.28,0,0,1-2.58-2.215,1.852,1.852,0,0,1,.971-1.639,4.206,4.206,0,0,1,2.155-.607h3.49Zm9.833-9.651h-4.127l7.223,14.385-4.461,9.8h3.854l11.138-24.188h-3.915l-4.674,10.622Z" transform="translate(123.768 136.098)" fill="url(#linear-gradient-2)"/>
    <path id="Path_95094" data-name="Path 95094" d="M5182.9,6225.78h-2.07c-.368,0-.514-.253-.33-.575l5.338-9.352c.138-.242.371-.3.552-.144a.364.364,0,0,1,.111.347q-.231,1.75-.462,3.5c-.088.667-.173,1.335-.265,2-.017.123.014.147.134.146,1.4,0,2.8.007,4.2-.01a.377.377,0,0,1,.351.6q-2.609,4.61-5.192,9.232c-.021.037-.041.074-.062.111a.341.341,0,0,1-.4.2.336.336,0,0,1-.246-.406c.056-.581.116-1.161.176-1.741q.135-1.314.274-2.627c.039-.375.073-.75.12-1.123.016-.125,0-.172-.142-.17C5184.29,6225.785,5183.595,6225.78,5182.9,6225.78Z" transform="translate(-5118.662 -6090.045)" fill="#fff"/>
  </g>
</svg>
