<svg xmlns="http://www.w3.org/2000/svg" width="16.486" height="13.39" viewBox="0 0 16.486 13.39">
  <path id="Icon_awesome-twitter" data-name="Icon awesome-twitter" d="M14.792,6.718c.01.146.01.293.01.439a9.548,9.548,0,0,1-9.613,9.613A9.548,9.548,0,0,1,0,15.254a6.99,6.99,0,0,0,.816.042,6.767,6.767,0,0,0,4.195-1.444,3.385,3.385,0,0,1-3.159-2.343,4.261,4.261,0,0,0,.638.052,3.574,3.574,0,0,0,.889-.115A3.379,3.379,0,0,1,.669,8.13V8.088A3.4,3.4,0,0,0,2.2,8.517,3.384,3.384,0,0,1,1.151,4,9.6,9.6,0,0,0,8.118,7.534a3.814,3.814,0,0,1-.084-.774,3.382,3.382,0,0,1,5.848-2.312,6.652,6.652,0,0,0,2.144-.816A3.37,3.37,0,0,1,14.54,5.494a6.774,6.774,0,0,0,1.946-.523,7.263,7.263,0,0,1-1.695,1.747Z" transform="translate(0 -3.381)"/>
</svg>
