<svg xmlns="http://www.w3.org/2000/svg" xmlns:xlink="http://www.w3.org/1999/xlink" width="74.532" height="82.648" viewBox="0 0 74.532 82.648">
  <defs>
    <linearGradient id="linear-gradient" x1="0.5" x2="0.5" y2="1" gradientUnits="objectBoundingBox">
      <stop offset="0" stop-color="#f66884"/>
      <stop offset="0.496" stop-color="#f67f70"/>
      <stop offset="1" stop-color="#c76fc1"/>
    </linearGradient>
  </defs>
  <path id="Play_Store" data-name="Play Store" d="M-1815.826-3289.449q-10.783-6.185-21.584-12.348-17.017-9.727-34.024-19.453a9.18,9.18,0,0,0-7.58-1.031,9.055,9.055,0,0,0-6.452,9.016q-.007,31.913,0,63.827c0,.267,0,.538.023.805a9.118,9.118,0,0,0,4.054,7.078,14.437,14.437,0,0,0,3.663,1.514h2.425a15.18,15.18,0,0,0,4.064-1.55q11.335-6.523,22.7-12.987,16.354-9.347,32.7-18.694a8.9,8.9,0,0,0,4.883-7.483A8.87,8.87,0,0,0-1815.826-3289.449Zm-49.187-21.768q12.2,6.959,24.4,13.917c.584.336.649.525.239,1.091-2.43,3.313-4.809,6.664-7.285,10.115-6.084-8.477-12.131-16.9-18.275-25.454A1.492,1.492,0,0,1-1865.013-3311.217Zm24.488,45.7q-6.523,3.748-13.061,7.479-5.7,3.252-11.386,6.512c-.235.129-.469.253-.7.377-.055-.051-.11-.106-.166-.161q9.071-12.639,18.183-25.326c2.531,3.526,5,6.977,7.488,10.415C-1839.771-3265.674-1840.281-3265.66-1840.525-3265.518Zm22.2-12.679q-8.167,4.687-16.342,9.361c-.318.179-.483.184-.709-.134q-4.308-6.033-8.647-12.048a.51.51,0,0,1,.014-.708q4.334-6.02,8.642-12.054c.24-.336.419-.271.709-.106q8.139,4.667,16.278,9.319a3.673,3.673,0,0,1,1.965,3.221A3.639,3.639,0,0,1-1818.329-3278.2Z" transform="translate(1885.469 3322.689)" fill="url(#linear-gradient)"/>
</svg>
